<?xml version="1.0" standalone="no"?>
<!DOCTYPE svg PUBLIC "-//W3C//DTD SVG 20010904//EN"
 "http://www.w3.org/TR/2001/REC-SVG-20010904/DTD/svg10.dtd">
<svg version="1.0" xmlns="http://www.w3.org/2000/svg"
 width="378.000000pt" height="378.000000pt" viewBox="0 0 378.000000 378.000000"
 preserveAspectRatio="xMidYMid meet">
<metadata>
Created by potrace 1.14, written by Peter Selinger 2001-2017
</metadata>
<g transform="translate(0.000000,378.000000) scale(0.100000,-0.100000)"
fill="#000000" stroke="none">
<path d="M390 1890 l0 -1870 295 0 295 0 0 150 0 150 190 0 190 0 0 190 0 190
520 0 520 0 0 -340 0 -340 300 0 300 0 0 340 0 340 185 0 185 0 0 1530 0 1530
-1490 0 -1490 0 0 -1870z m2310 485 l0 -635 -335 0 -335 0 0 635 0 635 335 0
335 0 0 -635z m450 0 l0 -635 -110 0 -110 0 0 635 0 635 110 0 110 0 0 -635z"/>
</g>
</svg>
